<?xml version="1.0" encoding="UTF-8" standalone="no"?>
<svg
   xmlns:dc="http://purl.org/dc/elements/1.1/"
   xmlns:cc="http://creativecommons.org/ns#"
   xmlns:rdf="http://www.w3.org/1999/02/22-rdf-syntax-ns#"
   xmlns:svg="http://www.w3.org/2000/svg"
   xmlns="http://www.w3.org/2000/svg"
   xmlns:xlink="http://www.w3.org/1999/xlink"
   xmlns:sodipodi="http://sodipodi.sourceforge.net/DTD/sodipodi-0.dtd"
   xmlns:inkscape="http://www.inkscape.org/namespaces/inkscape"
   width="583.44952"
   height="700"
   id="svg2"
   version="1.1"
   inkscape:version="0.91 r13725"
   sodipodi:docname="Book3.svg">
  <defs
     id="defs14">
    <linearGradient
       id="linearGradient801"
       y2="147.35001"
       xlink:href="#linearGradient795"
       gradientUnits="userSpaceOnUse"
       y1="149.38"
       gradientTransform="matrix(0.3703081,0,0,1.1662877,527.58409,-7.1337488)"
       x2="456.39999"
       x1="407.87" />
    <linearGradient
       id="linearGradient795">
      <stop
         stop-color="#d5dfff"
         offset="0"
         id="stop7" />
      <stop
         stop-color="#FFF"
         offset="1"
         id="stop9" />
    </linearGradient>
    <linearGradient
       id="grad"
       gradientUnits="userSpaceOnUse"
       x1="103.083"
       y1="111.276"
       x2="92.551102"
       y2="107.764"
       gradientTransform="matrix(0.99614143,0,0,2.2525522,703.84172,-75.047171)">
      <stop
         stop-color="#f00"
         offset="0"
         id="stop7-8" />
      <stop
         stop-color="#ff0"
         offset="1"
         id="stop9-0" />
    </linearGradient>
    <linearGradient
       id="gradbase"
       gradientUnits="userSpaceOnUse">
      <stop
         stop-color="#a43907"
         stop-opacity="0.9961"
         offset="0"
         id="stop7-0" />
      <stop
         stop-color="#fff"
         offset="1"
         id="stop9-3" />
    </linearGradient>
  </defs>
  <sodipodi:namedview
     pagecolor="#ffffff"
     bordercolor="#666666"
     borderopacity="1"
     objecttolerance="10"
     gridtolerance="10"
     guidetolerance="10"
     inkscape:pageopacity="0"
     inkscape:pageshadow="2"
     inkscape:window-width="1600"
     inkscape:window-height="837"
     id="namedview12"
     showgrid="false"
     inkscape:zoom="0.95571429"
     inkscape:cx="291.72476"
     inkscape:cy="350"
     inkscape:window-x="-8"
     inkscape:window-y="-8"
     inkscape:window-maximized="1"
     inkscape:current-layer="svg2"
     fit-margin-top="0"
     fit-margin-left="0"
     fit-margin-right="0"
     fit-margin-bottom="0" />
  <metadata
     id="metadata4">
    <rdf:RDF>
      <cc:Work
         rdf:about="">
        <dc:format>image/svg+xml</dc:format>
        <dc:type
           rdf:resource="http://purl.org/dc/dcmitype/StillImage" />
        <dc:title></dc:title>
      </cc:Work>
    </rdf:RDF>
  </metadata>
  <g
     id="g9562">
    <path
       style="fill:#a5110b;stroke:#000000;stroke-width:11.06421947;fill-opacity:1"
       inkscape:connector-curvature="0"
       d="m 5.5320915,108.06472 c 0,-30.238509 24.3412835,-42.785334 53.1082555,-64.172471 C 93.304549,18.079423 107.32292,5.5325978 138.30273,5.5325978 l 402.73761,0 c 29.50827,0 36.87704,7.4130272 36.87704,35.4055042 l 0,546.572468 c 0,27.29543 -6.63853,35.4055 -36.87704,35.4055 l -535.5082485,0 0,-520.75632"
       id="path89" />
    <path
       style="fill:#e5e5e5;stroke:#000000;stroke-width:11.06421947"
       inkscape:connector-curvature="0"
       d="m 441.46236,670.86508 c 53.10826,0 43.51558,-1.43834 80.40369,-38.35965 39.08989,-38.35965 35.4055,-35.4055 35.4055,-70.811 l 0,-500.839626 c 0,-25.812825 -6.63853,-33.19266 -33.93396,-33.19266 l -372.49578,0 c -29.50827,0 -42.04403,11.805523 -73.765153,36.146807 C 50.522529,83.724547 28.394089,96.260308 28.394089,124.29704 l 0,546.57247 413.064951,0 z"
       id="path91" />
    <path
       style="fill:#a5110b;stroke:#000000;stroke-width:11.06421947;fill-opacity:1"
       inkscape:connector-curvature="0"
       d="m 481.29355,659.06288 c 0,27.29543 -6.63853,35.4055 -36.87704,35.4055 l -402.737612,0 c -30.238513,0 -36.1468065,-7.41302 -36.1468065,-35.4055 l 0,-547.30934 c 0,-27.295435 6.6385315,-35.405509 36.1468065,-35.405509 l 402.737612,0 c 30.23851,0 36.87704,7.413028 36.87704,35.405509 l 0,547.30934 z"
       id="path93" />
  </g>
</svg>
